HIERARCHY
ROOT hip
{
	OFFSET 0.000000 0.000000 0.000000 
	CHANNELS 6 Xposition Yposition Zposition Xrotation Zrotation Yrotation
	JOINT abdomen
	{
		OFFSET 0.000000 3.402643 0.000000 
		CHANNELS 3 Xrotation Zrotation Yrotation
		JOINT chest
		{
			OFFSET 0.000000 8.438565 -0.680529 
			CHANNELS 3 Xrotation Zrotation Yrotation
			JOINT neck
			{
				OFFSET 0.000000 10.207942 -0.272212 
				CHANNELS 3 Xrotation Zrotation Yrotation
				JOINT head
				{
					OFFSET 0.000000 3.130431 0.000000 
					CHANNELS 3 Xrotation Zrotation Yrotation
					End Site
					{
						OFFSET 0.000000 3.130435 0.000000 
					}
				}
			}
			JOINT lCollar
			{
				OFFSET 3.470700 6.669187 -0.816635 
				CHANNELS 3 Yrotation Zrotation Xrotation
				JOINT lShldr
				{
					OFFSET 3.198488 0.000000 0.000000 
					CHANNELS 3 Zrotation Yrotation Xrotation
					JOINT lForeArm
					{
						OFFSET 10.139888 0.000000 0.000000 
						CHANNELS 3 Yrotation Zrotation Xrotation
						JOINT lHand
						{
							OFFSET 8.370511 0.000000 0.000000 
							CHANNELS 3 Zrotation Yrotation Xrotation
							End Site
							{
								OFFSET 4.083176 0.000000 0.000000 
							}
						}
					}
				}
			}
			JOINT rCollar
			{
				OFFSET -3.470700 6.669187 -0.816635 
				CHANNELS 3 Yrotation Zrotation Xrotation
				JOINT rShldr
				{
					OFFSET -3.198488 0.000000 0.000000 
					CHANNELS 3 Zrotation Yrotation Xrotation
					JOINT rForeArm
					{
						OFFSET -10.139888 0.000000 0.000000 
						CHANNELS 3 Yrotation Zrotation Xrotation
						JOINT rHand
						{
							OFFSET -8.370511 0.000000 0.000000 
							CHANNELS 3 Zrotation Yrotation Xrotation
							End Site
							{
								OFFSET -4.083176 0.000000 0.000000 
							}
						}
					}
				}
			}
		}
	}
	JOINT lThigh
	{
		OFFSET 5.308129 -1.633274 1.361059 
		CHANNELS 3 Xrotation Zrotation Yrotation
		JOINT lShin
		{
			OFFSET -2.041588 -20.007561 0.000000 
			CHANNELS 3 Xrotation Zrotation Yrotation
			JOINT lFoot
			{
				OFFSET 0.000000 -19.190928 -1.224953 
				CHANNELS 3 Xrotation Yrotation Zrotation
				End Site
				{
					OFFSET 0.000000 -2.449906 4.627600 
				}
			}
		}
	}
	JOINT rThigh
	{
		OFFSET -5.308129 -1.633274 1.361059 
		CHANNELS 3 Xrotation Zrotation Yrotation
		JOINT rShin
		{
			OFFSET 2.041588 -20.007561 0.000000 
			CHANNELS 3 Xrotation Zrotation Yrotation
			JOINT rFoot
			{
				OFFSET 0.000000 -19.190928 -1.224953 
				CHANNELS 3 Xrotation Yrotation Zrotation
				End Site
				{
					OFFSET 0.000000 -2.449906 4.627600 
				}
			}
		}
	}
}
MOTION
Frames: 20
Frame Time: 0.016667
1.182674 40.227451 2.979243 1.996300 3.679410 20.558201 -19.267599 1.764160 -7.236940 13.917000 8.148850 -3.815140 12.568000 14.617900 -5.852800 13.071800 10.689800 -2.240760 2.000000 -2.000000 0.000000 -91.872704 -34.149502 -158.619003 130.498001 -0.119717 0.121187 0.064398 -0.055748 -157.253998 -2.000000 2.000000 0.000000 75.057701 -0.162538 148.300003 -124.560997 0.142830 0.094794 -0.116441 0.136484 170.910004 0.152674 -5.776415 15.464025 39.775928 2.658074 2.770972 -29.147251 6.336167 3.511305 -40.331745 -9.663848 10.427197 51.698219 -2.103809 -3.426019 -8.462401 6.613612 -0.932922 
1.258020 40.328236 3.293059 2.172190 3.571660 19.911100 -18.947399 2.093380 -7.862350 14.470500 8.711150 -4.079140 12.330500 13.936000 -5.262400 12.916100 10.482100 -1.931270 2.000000 -2.000000 0.000000 -91.183800 -35.151299 -161.188995 130.537003 -0.119641 0.121122 0.064493 -0.056005 -157.350998 -2.000000 2.000000 0.000000 75.536102 -2.261810 148.130005 -120.606003 0.150213 0.099512 -0.118943 0.128623 169.787003 0.076720 -5.652992 15.765326 40.179829 2.634221 2.794527 -28.029539 6.625208 3.567369 -40.872913 -9.084063 10.609493 51.188232 -2.110642 -3.393251 -9.532879 4.976094 -0.965205 
1.299056 40.504154 3.682715 2.171960 3.474070 19.399599 -18.732700 2.433160 -8.515700 14.639300 9.267630 -4.382540 12.207700 13.013700 -4.574480 12.748600 10.197300 -1.604770 2.000000 -2.000000 0.000000 -89.605598 -35.462799 -164.996994 131.026001 -0.118696 0.120306 0.064937 -0.057182 -157.800995 -2.000000 2.000000 0.000000 76.073700 -6.187420 148.044006 -115.957001 0.159281 0.104390 -0.120972 0.130111 168.889008 -0.118768 -5.135341 16.116684 41.241528 2.589962 2.838057 -26.187666 5.957708 3.015130 -40.800808 -8.350337 11.174278 49.242111 -2.226762 -3.277956 -9.487955 3.000072 -1.199529 
1.340083 40.680088 4.072371 2.181520 3.376460 18.888700 -18.527300 2.777510 -9.156950 14.798100 9.824200 -4.685830 12.080700 12.091700 -3.895960 12.591200 9.902190 -1.286190 2.000000 -2.000000 0.000000 -88.007004 -35.676701 -168.824997 131.524002 -0.117739 0.119466 0.065399 -0.058381 -158.259995 -2.000000 2.000000 0.000000 76.621597 -10.113000 147.917007 -111.308998 0.168714 0.108518 -0.123046 0.131582 167.981003 -0.273428 -4.622284 16.471069 42.196423 2.547598 2.911842 -24.280035 5.262780 2.486651 -40.734409 -7.619650 11.711668 47.217640 -2.343909 -3.178924 -9.357004 1.051186 -1.429243 
1.365314 40.843800 4.517737 2.191260 3.356920 18.146299 -18.365200 3.045400 -9.639800 14.821500 10.184200 -4.923110 11.668200 11.078200 -3.185750 12.235700 9.592620 -0.963982 2.000000 -2.000000 0.000000 94.950203 -144.526001 5.985040 132.315002 -0.116234 0.118115 0.066952 -0.062207 -159.733994 -2.000000 2.000000 0.000000 77.246696 -13.080000 147.061005 -105.000000 0.181990 0.112870 -0.126121 0.133674 166.653000 -0.279322 -4.151561 16.778444 42.902615 2.533778 2.932538 -22.305346 4.153835 1.877706 -40.562721 -6.788749 12.782966 44.618809 -2.518242 -3.010353 -9.297495 -0.559072 -1.601997 
1.390534 41.007500 4.963102 2.210780 3.337360 17.404499 -18.202499 3.314150 -10.120300 14.834500 10.553800 -5.161080 11.244300 10.062600 -2.471780 11.871100 9.272710 -0.648985 2.000000 -2.000000 0.000000 97.860397 -144.942993 0.837552 133.115997 -0.114730 0.116726 0.068602 -0.065992 -161.209000 -2.000000 2.000000 0.000000 77.930702 -16.046900 146.156006 -98.701599 0.195642 0.115734 -0.129266 0.135710 165.315002 -0.231999 -3.681570 17.100119 43.659264 2.508956 2.976721 -20.436165 2.999653 1.285977 -40.367104 -5.952824 13.846478 41.922962 -2.659376 -2.860242 -9.166770 -2.145889 -1.759940 
1.410934 41.022549 5.485845 2.534860 3.795120 16.662300 -18.032900 3.489870 -10.824700 15.237900 11.329200 -5.499640 10.788600 9.315160 -1.267500 11.404100 9.196400 -0.130224 2.000000 -2.000000 0.000000 101.779999 -146.235001 -6.309660 133.876999 -0.113317 0.115385 0.070611 -0.070275 -162.897995 -2.000000 2.000000 0.000000 77.794800 -18.604300 145.544998 -91.699600 0.211084 0.117139 -0.128481 0.135211 165.647003 -0.064411 -3.929909 17.213825 43.846241 2.498575 2.988623 -19.124647 2.234453 0.995104 -40.628857 -5.764739 14.497503 40.001938 -2.773151 -2.748424 -9.458959 -2.361001 -1.751441 
1.431323 41.037613 6.008600 2.859480 4.262280 15.916000 -17.880501 3.675260 -11.531700 15.642200 12.114800 -5.828260 10.301100 8.576530 -0.074771 10.937400 9.119300 0.399623 2.000000 -2.000000 0.000000 -74.590599 -32.082100 166.792007 134.639008 -0.111922 0.114026 0.072758 -0.074521 -164.597000 -2.000000 2.000000 0.000000 77.688400 -21.152000 144.925003 -84.688004 0.227506 0.136138 -0.127722 0.134723 165.968994 0.104596 -4.189231 17.335785 44.041885 2.495576 2.983629 -17.816002 1.470695 0.715994 -40.805840 -5.610023 15.141382 37.999958 -2.890728 -2.614470 -9.760016 -2.584676 -1.726906 
1.418405 40.881363 6.551239 3.380090 4.611140 14.989500 -17.678301 3.902630 -11.278900 15.514100 12.025000 -5.700870 10.671500 8.205570 0.477008 11.233100 9.074190 0.706420 2.000000 -2.000000 0.000000 -70.638603 -30.983200 160.524994 135.449997 -0.110458 0.112559 0.076048 -0.080482 -167.029007 -2.000000 2.000000 0.000000 79.042702 -23.157700 141.800003 -78.193901 0.242822 0.133832 -0.127332 0.134470 166.134995 0.282766 -4.624251 17.168961 43.882912 2.526879 2.969559 -17.615133 1.133258 0.632017 -41.669365 -5.179828 16.059454 36.786572 -2.957304 -2.536075 -9.522933 -1.771837 -1.558173 
1.405464 40.725002 7.093889 3.911150 4.959180 14.079300 -17.476299 4.133640 -11.015600 15.395800 11.945000 -5.581690 11.031700 7.836440 1.031360 11.528900 9.028900 1.011240 2.000000 -2.000000 0.000000 -66.899498 -29.521900 154.451996 136.259995 -0.109015 0.111072 0.079588 -0.096064 -169.460999 -2.000000 2.000000 0.000000 80.542999 -25.095100 138.572998 -71.699699 0.257778 0.129809 -0.126943 0.134216 166.300995 0.462323 -5.035839 16.991905 43.745316 2.534354 2.965464 -17.438078 0.797106 0.561630 -42.537304 -4.734136 16.963896 35.591045 -3.036980 -2.460218 -9.310314 -0.959407 -1.415213 
1.409789 40.382412 7.688539 4.512570 5.442160 13.252000 -17.345900 4.458670 -11.118600 15.497200 12.384700 -5.618890 10.662900 6.599260 1.786490 11.403500 8.731330 1.372850 2.000000 -2.000000 0.000000 -63.507500 -26.391899 147.468002 136.865997 -0.107950 0.109948 0.073591 -0.101703 -171.882996 -2.000000 2.000000 0.000000 81.467201 -27.277201 135.464005 -66.846199 0.268607 0.125711 -0.132646 0.137783 163.899002 0.906183 -5.895960 16.760069 43.301655 2.572662 2.939886 -18.262829 1.219209 0.756785 -43.748295 -4.496357 17.829493 35.612686 -3.014305 -2.462831 -8.442014 0.036133 -1.272582 
1.414114 40.039951 8.283213 5.115460 5.943200 12.435500 -17.225700 4.783710 -11.220600 15.598500 12.834300 -5.653210 10.272900 5.360630 2.554320 11.268700 8.433750 1.724540 2.000000 -2.000000 0.000000 -60.632702 -22.928101 140.882004 137.470993 -0.106898 0.108813 -179.921997 -179.893005 5.695540 -2.000000 2.000000 0.000000 82.537300 -29.410601 132.261993 -61.982899 0.279070 0.120701 -0.138494 0.141107 161.496002 1.344028 -6.747241 16.541977 42.857800 2.612721 2.914125 -19.078581 1.653994 0.977980 -44.906971 -4.265130 18.682098 35.673969 -2.990502 -2.474618 -7.673800 0.998702 -1.139575 
1.370628 39.555264 8.902825 5.868150 6.518690 11.938100 -17.132099 5.092640 -11.198800 15.570600 13.223000 -5.643930 9.929100 3.836220 3.247840 11.289000 7.977860 2.050870 2.000000 -2.000000 0.000000 -58.382999 -18.876301 134.796997 138.145004 -0.105741 0.107536 -179.917007 -179.895996 2.883010 -2.000000 2.000000 0.000000 84.346100 -31.103001 127.824997 -58.447800 0.286390 0.116511 -0.141032 0.142451 160.470993 1.489237 -7.620752 16.509272 42.925415 2.621750 2.906658 -20.368895 2.637863 1.492452 -46.411472 -4.155964 19.595644 36.870358 -2.899869 -2.555916 -7.039799 1.809148 -1.076566 
1.327153 39.070469 9.522472 6.613600 7.111060 11.448200 -17.039499 5.405200 -11.166100 15.552700 13.602200 -5.631860 9.566700 2.308380 3.937980 11.300000 7.531890 2.378060 2.000000 -2.000000 0.000000 -56.641602 -14.627700 129.007004 138.828003 -0.104582 0.106227 -179.912003 -179.880997 0.070539 -2.000000 2.000000 0.000000 86.339203 -32.659100 123.248001 -54.902802 0.293457 0.111864 -0.143618 0.143761 159.436005 1.636870 -8.501556 16.464037 42.985386 2.611065 2.920948 -21.656111 3.633610 2.010367 -47.906822 -4.032162 20.508661 38.095600 -2.807908 -2.644060 -6.423630 2.640746 -1.023808 
1.246550 38.518093 10.192368 7.371690 7.709960 11.277800 -16.950600 5.734850 -11.087700 15.472100 14.067700 -5.612400 8.796920 0.429926 4.497910 11.190000 6.894240 2.605240 2.000000 -2.000000 0.000000 -55.997200 -10.141600 124.789001 139.112000 -0.104107 0.105681 -179.908997 -179.876999 -1.570100 -2.000000 2.000000 0.000000 88.331497 -33.835400 118.857002 -52.510300 0.298058 0.108485 -0.144747 0.144315 158.987000 1.589664 -9.113427 16.457685 43.595348 2.589313 2.970032 -22.894728 4.262355 2.460440 -49.913139 -4.043509 20.920935 41.121540 -2.633525 -2.845684 -3.962214 3.262941 -1.097746 
1.165959 37.965603 10.862274 8.122670 8.296020 11.121500 -16.861601 6.070740 -11.020400 15.391200 14.523400 -5.593230 8.010310 -1.439150 5.082590 11.081200 6.256280 2.835950 2.000000 -2.000000 0.000000 -55.704800 -5.615650 120.661003 139.395004 -0.103634 0.105133 -179.906006 -179.873993 -3.210720 -2.000000 2.000000 0.000000 90.459503 -34.885201 114.349998 -50.107899 0.302532 0.104901 -0.145881 0.144860 158.537003 1.488536 -9.699124 16.470739 44.302109 2.570205 2.998000 -24.190577 4.912087 2.958969 -51.877472 -4.076060 21.323380 44.038033 -2.431153 -3.036696 -1.419687 3.906256 -1.222638 
1.078766 37.414391 11.589643 9.003530 8.807890 10.921100 -16.831600 6.444730 -10.627400 15.312800 14.842700 -5.397120 7.291570 -2.582830 5.891190 10.949200 5.977120 3.178760 2.000000 -2.000000 0.000000 -56.744598 -2.005130 118.313004 139.755997 -0.103035 0.104429 -179.903000 -179.871002 -4.743920 -2.000000 2.000000 0.000000 92.555901 -34.793098 109.566002 -47.949699 0.306420 0.101525 -0.147217 0.145489 158.009995 1.432401 -10.129496 16.306185 44.812222 2.557162 3.012400 -25.237347 4.622747 2.990743 -54.434635 -4.065518 20.780596 48.041531 -2.173267 -3.263180 -1.767726 4.990981 -1.116901 
0.991584 36.863003 12.316807 9.877910 9.325090 10.728300 -16.810600 6.818540 -10.236000 15.224300 15.152000 -5.206050 6.546670 -3.711020 6.722920 10.817600 5.697760 3.512060 2.000000 -2.000000 0.000000 -57.940601 1.556700 115.897003 140.117004 -0.102441 0.103722 -179.899002 -179.878006 -6.277150 -2.000000 2.000000 0.000000 94.642097 -34.555302 104.795998 -45.781700 0.310194 0.097988 -0.148559 0.146105 157.483002 1.462848 -10.575370 16.137377 45.262371 2.555321 3.012816 -26.311943 4.366359 3.006450 -56.950428 -4.085292 20.242462 51.936272 -1.872925 -3.496982 -2.082493 6.106802 -1.025187 
0.970936 36.503967 13.180687 10.152600 9.894620 11.938900 -16.688601 7.046920 -9.700580 15.224100 14.753100 -4.896660 6.451900 -4.697200 6.912420 10.941600 5.443930 3.533270 2.000000 -2.000000 0.000000 -60.090698 2.358270 116.638000 140.772003 -0.101375 0.102432 -179.899994 -179.878998 -6.081840 -2.000000 2.000000 0.000000 97.296997 -33.303299 101.032997 -45.049301 0.311439 0.096761 -0.154184 0.148529 155.294998 2.565349 -10.830082 15.122467 44.960472 2.669661 2.976007 -26.417093 4.161451 2.897186 -58.193401 -5.538812 18.760098 55.559807 -1.631107 -3.672043 -3.422560 7.341761 -0.814954 
0.950285 36.145046 14.044456 10.439100 10.462700 13.146800 -16.574100 7.271720 -9.177150 15.213600 14.354000 -4.579870 6.339420 -5.693500 7.104440 11.075400 5.180390 3.553030 2.000000 -2.000000 0.000000 -62.240700 3.189120 117.349998 141.425995 -0.100325 0.101130 -179.899994 -179.869003 -5.886510 -2.000000 2.000000 0.000000 99.815697 -31.905399 97.406403 -44.316799 0.312668 0.095518 -0.159872 0.150726 153.117004 3.740781 -11.084413 14.079234 44.619144 2.783038 2.939321 -26.559614 3.949610 2.806975 -59.372948 -7.031125 17.289654 59.055058 -1.381566 -3.843163 -4.680550 8.602427 -0.588408 
